# xmcd CD database file
#
# Track frame offsets:
#	150
#	15635
#	36338
#	56588
#	75703
#	92059
#	109860
#	130303
#	151863
#	174315
#
# Disc length: 2580 seconds
#
# Revision: 0
# Processed by: cddbd v1.5.2PL0 Copyright (c) Steve Scherf et al.
# Submitted via: CDex 1.51
#
DISCID=760a120a
DTITLE=Bob Bowles - Better Late Than Never
DYEAR=2004
DGENRE=Blues
TTITLE0=24 Hours
TTITLE1=Little Angel
TTITLE2=Do Good
TTITLE3=I May Be Wrong
TTITLE4=Let Me Be The One
TTITLE5=Keep On Smiling
TTITLE6=Free
TTITLE7=Things Are Gonna Get Better
TTITLE8=Strange Woman
TTITLE9=I Miss You
EXTD=YEAR: 2004
EXTT0=
EXTT1=
EXTT2=
EXTT3=
EXTT4=
EXTT5=
EXTT6=
EXTT7=
EXTT8=
EXTT9=
PLAYORDER=
